<?xml version="1.0" encoding="utf-8"?>
<!-- Generator: Adobe Illustrator 16.0.3, SVG Export Plug-In . SVG Version: 6.00 Build 0)  -->
<!DOCTYPE svg PUBLIC "-//W3C//DTD SVG 1.1//EN" "http://www.w3.org/Graphics/SVG/1.1/DTD/svg11.dtd">
<svg version="1.1" id="Layer_1" xmlns="http://www.w3.org/2000/svg" xmlns:xlink="http://www.w3.org/1999/xlink" x="0px" y="0px"
	 width="283.465px" height="283.465px" viewBox="0 0 283.465 283.465" enable-background="new 0 0 283.465 283.465"
	 xml:space="preserve">
<path fill="#ED3682" d="M132.874,120.338v12.536h-15.502v17.716l15.502,0.001v44.291h17.717v-44.291h15.091l2.021-17.717H150.55
	v-10.82c0-5.016,1.393-8.434,8.584-8.434l9.173-0.004V98.123c-1.587-0.211-6.952-0.683-13.287-0.683
	C141.795,97.44,132.874,105.513,132.874,120.338z"/>
<path fill="#ED3682" d="M229.425,54.041c-48.432-48.431-126.953-48.431-175.384,0s-48.431,126.952,0,175.384
	c48.431,48.431,126.952,48.43,175.383-0.001S277.855,102.471,229.425,54.041z M223.161,223.16
	c-44.972,44.972-117.886,44.973-162.857,0.001S15.333,105.275,60.304,60.303c44.971-44.972,117.885-44.972,162.855,0
	C268.133,105.275,268.133,178.189,223.161,223.16z"/>
</svg>
