<?xml version="1.0" encoding="utf-8"?>
<!-- Generator: Adobe Illustrator 16.0.3, SVG Export Plug-In . SVG Version: 6.00 Build 0)  -->
<!DOCTYPE svg PUBLIC "-//W3C//DTD SVG 1.1//EN" "http://www.w3.org/Graphics/SVG/1.1/DTD/svg11.dtd">
<svg version="1.1" id="Layer_1" xmlns="http://www.w3.org/2000/svg" xmlns:xlink="http://www.w3.org/1999/xlink" x="0px" y="0px"
	 width="283.465px" height="283.465px" viewBox="0 0 283.465 283.465" enable-background="new 0 0 283.465 283.465"
	 xml:space="preserve">
<g>
	<path fill="none" d="M177.166,141.729c0,19.537-15.909,35.433-35.438,35.433c-19.536,0-35.429-15.896-35.429-35.433
		c0.003-3.058,0.398-6.024,1.136-8.854H88.583v46.9c0,8.326,6.783,15.105,15.109,15.105h76.083c8.326,0,15.105-6.779,15.105-15.105
		v-46.9h-18.852C176.77,135.705,177.166,138.672,177.166,141.729z"/>
	<path fill="#F93283" d="M229.425,54.041c-48.432-48.431-126.953-48.431-175.384,0s-48.431,126.952,0,175.384
		c48.431,48.431,126.952,48.431,175.383-0.001C277.855,180.993,277.855,102.471,229.425,54.041z M223.161,223.16
		c-44.972,44.972-117.886,44.973-162.857,0.001c-44.971-44.972-44.971-117.886,0-162.858c44.971-44.972,117.885-44.972,162.855,0
		C268.133,105.275,268.133,178.189,223.161,223.16z"/>
	<path fill="#F93283" d="M179.771,79.724h-76.08c-13.217,0-23.968,10.749-23.968,23.968v25.314v50.77
		c0,13.216,10.751,23.965,23.968,23.965h76.083c13.215,0,23.965-10.749,23.965-23.965v-50.773v-25.317
		C203.734,90.469,192.988,79.724,179.771,79.724z M120.182,126.235c4.84-6.69,12.683-11.075,21.55-11.075
		c8.868,0,16.713,4.385,21.543,11.075c3.146,4.366,5.031,9.713,5.031,15.495c0,14.651-11.933,26.573-26.578,26.573
		c-14.651,0-26.571-11.922-26.571-26.573C115.164,135.948,117.04,130.601,120.182,126.235z M194.882,179.775
		c0,8.326-6.78,15.105-15.106,15.105h-76.083c-8.326,0-15.109-6.779-15.109-15.105v-46.9h18.853
		c-0.737,2.83-1.133,5.797-1.136,8.854c0,19.537,15.893,35.433,35.429,35.433c19.528,0,35.438-15.896,35.438-35.433
		c0-3.058-0.396-6.024-1.135-8.854h18.851v46.9H194.882z M194.882,115.157h-26.573V88.583h11.467
		c8.326,0,15.106,6.781,15.106,15.106V115.157z"/>
</g>
</svg>
