<?xml version="1.0" encoding="utf-8"?>
<!-- Generator: Adobe Illustrator 16.0.3, SVG Export Plug-In . SVG Version: 6.00 Build 0)  -->
<!DOCTYPE svg PUBLIC "-//W3C//DTD SVG 1.1//EN" "http://www.w3.org/Graphics/SVG/1.1/DTD/svg11.dtd">
<svg version="1.1" id="Layer_1" xmlns="http://www.w3.org/2000/svg" xmlns:xlink="http://www.w3.org/1999/xlink" x="0px" y="0px"
	 width="283.465px" height="283.465px" viewBox="0 0 283.465 283.465" enable-background="new 0 0 283.465 283.465"
	 xml:space="preserve">
<path fill="#ED3682" d="M194.882,177.147c-0.005,0.006-0.012,0.013-0.018,0.019h-5.171l-33.211-34.184
	c-1.729-1.729-1.521,2.521-3.25,4.25c-1.73,1.73-4.257,1.035-2.5,2.75l26.434,27.184c-16.094,0-84.99-0.001-70.866-0.001
	l24.433-26.433c1.729-1.729,0.229-3.271-1.5-5c-1.73-1.729-3.02-1.979-4.75-0.25c-7.993,7.993-22.718,23.689-30.71,31.683
	l-5.173,0.001c-0.006-0.005-0.012-0.012-0.017-0.018l2.149-67.916l-10-7l-1.008,74.934c0,4.87,3.987,8.857,8.858,8.857
	c64.96,0,41.338,0,106.299,0c4.87,0,8.858-3.991,8.858-8.857l-1.133-75.059l-8.875,7.625L194.882,177.147z"/>
<path fill="#ED3682" d="M147.996,156.866l46.886-46.886l7.822-7.822c-1.493-2.799-4.446-4.718-7.822-4.718H88.583
	c-3.377,0-6.329,1.917-7.823,4.717l54.709,54.709C138.914,160.311,144.556,160.305,147.996,156.866z M186.036,106.299
	l-44.304,44.304l-44.304-44.304H186.036z"/>
<path fill="#ED3682" d="M229.425,54.041c-48.432-48.431-126.953-48.431-175.384,0s-48.431,126.952,0,175.384
	c48.431,48.431,126.952,48.43,175.383-0.001S277.855,102.471,229.425,54.041z M223.161,223.16
	c-44.972,44.972-117.886,44.973-162.857,0.001S15.333,105.275,60.304,60.303c44.971-44.972,117.885-44.972,162.855,0
	C268.133,105.275,268.133,178.189,223.161,223.16z"/>
</svg>
