<?xml version="1.0" encoding="utf-8"?>
<!-- Generator: Adobe Illustrator 16.0.3, SVG Export Plug-In . SVG Version: 6.00 Build 0)  -->
<!DOCTYPE svg PUBLIC "-//W3C//DTD SVG 1.1//EN" "http://www.w3.org/Graphics/SVG/1.1/DTD/svg11.dtd">
<svg version="1.1" id="Layer_1" xmlns="http://www.w3.org/2000/svg" xmlns:xlink="http://www.w3.org/1999/xlink" x="0px" y="0px"
	 width="512px" height="512px" viewBox="0 0 512 512" enable-background="new 0 0 512 512" xml:space="preserve">
<path fill="none" d="M256,176c-26.5,0-48,21.492-48,48c0,26.5,21.5,48,48,48c26.516,0,48-21.5,48-48
	C304,197.492,282.516,176,256,176z"/>
<path fill="none" d="M256,40C136.719,40,40,136.703,40,256s96.719,216,216,216c119.312,0,216-96.703,216-216S375.312,40,256,40z
	 M303.999,293.906c-18.796,32.969-34.312,62.969-34.312,62.969c-7.656,14.844-20.188,14.828-27.829-0.031
	c0,0-15.406-29.954-33.859-62.938c-21-37.562-32-47.875-32-69.906c0-41.391,35.812-80,80-80c44.188,0,80,38.609,79.999,80
	C335.999,246.047,325.405,256.344,303.999,293.906z"/>
<path fill="#ED3682" d="M256,144c-44.188,0-80,38.609-80,80c0,22.031,11,32.344,32,69.906
	c18.453,32.983,33.859,62.938,33.859,62.938c7.641,14.859,20.172,14.875,27.829,0.031c0,0,15.516-30,34.312-62.969
	c21.406-37.562,32-47.859,32-69.906C336,182.609,300.188,144,256,144z M256,272c-26.5,0-48-21.5-48-48c0-26.508,21.5-48,48-48
	c26.516,0,48,21.492,48,48C304,250.5,282.516,272,256,272z"/>
<path fill="#ED3682" d="M256,0C114.625,0,0,114.609,0,256c0,141.391,114.625,256,256,256c141.406,0,256-114.609,256-256
	C512,114.609,397.406,0,256,0z M256,472c-119.281,0-216-96.703-216-216S136.719,40,256,40c119.312,0,216,96.703,216,216
	S375.312,472,256,472z"/>
</svg>
