<?xml version="1.0" encoding="utf-8"?>
<!-- Generator: Adobe Illustrator 16.0.3, SVG Export Plug-In . SVG Version: 6.00 Build 0)  -->
<!DOCTYPE svg PUBLIC "-//W3C//DTD SVG 1.1//EN" "http://www.w3.org/Graphics/SVG/1.1/DTD/svg11.dtd">
<svg version="1.1" id="Layer_1" xmlns="http://www.w3.org/2000/svg" xmlns:xlink="http://www.w3.org/1999/xlink" x="0px" y="0px"
	 width="512px" height="512px" viewBox="0 0 512 512" enable-background="new 0 0 512 512" xml:space="preserve">
<path fill="none" d="M256,40C136.703,40,40,136.703,40,256s96.703,216,216,216s216-96.703,216-216S375.297,40,256,40z
	 M327.125,383.969c-5.703-0.031-52.641,4.062-123.906-67.188C131.954,245.531,128,189.25,128,184.875S171.204,128,176.891,128
	s40.719,60.782,40,64.876c-0.719,4.094-26.75,21.515-26.75,27.156c0,5.641,10.656,41.562,41.875,72.75
	c31.203,31.203,59.203,32,63.703,29.78c4.484-2.219,21.109-22.155,26.062-22.155S384,336.485,384,341.312
	C384,346.141,332.828,383.985,327.125,383.969z"/>
<path fill="#F93283" d="M256,0C114.609,0,0,114.609,0,256c0,141.391,114.609,256,256,256c141.391,0,256-114.609,256-256
	C512,114.609,397.391,0,256,0z M256,472c-119.297,0-216-96.703-216-216S136.703,40,256,40s216,96.703,216,216S375.297,472,256,472z"
	/>
<path fill="#F93283" d="M321.781,300.407c-4.953,0-21.578,19.938-26.062,22.155c-4.5,2.22-32.5,1.423-63.703-29.78
	c-31.219-31.188-41.875-67.109-41.875-72.75c0-5.641,26.031-23.062,26.75-27.156c0.719-4.094-34.313-64.876-40-64.876
	S128,180.5,128,184.875s3.953,60.656,75.219,131.906s118.203,67.156,123.906,67.188c5.703,0.018,56.875-37.828,56.875-42.656
	C384,336.485,326.734,300.407,321.781,300.407z"/>
</svg>
