<?xml version="1.0" encoding="utf-8"?>
<!-- Generator: Adobe Illustrator 16.0.3, SVG Export Plug-In . SVG Version: 6.00 Build 0)  -->
<!DOCTYPE svg PUBLIC "-//W3C//DTD SVG 1.1//EN" "http://www.w3.org/Graphics/SVG/1.1/DTD/svg11.dtd">
<svg version="1.1" id="Layer_1" xmlns="http://www.w3.org/2000/svg" xmlns:xlink="http://www.w3.org/1999/xlink" x="0px" y="0px"
	 width="283.465px" height="283.465px" viewBox="0 0 283.465 283.465" enable-background="new 0 0 283.465 283.465"
	 xml:space="preserve">
<path fill="#F93283" d="M229.425,54.041c-48.432-48.431-126.953-48.431-175.384,0s-48.431,126.952,0,175.384
	c48.431,48.431,126.952,48.43,175.383-0.001S277.855,102.471,229.425,54.041z M223.161,223.16
	c-44.972,44.972-117.886,44.973-162.857,0.001S15.333,105.275,60.304,60.303c44.971-44.972,117.885-44.972,162.855,0
	C268.133,105.275,268.133,178.189,223.161,223.16z"/>
<path fill="#F93283" d="M191.945,99.074c-4.214,2.565-8.88,4.426-13.849,5.431c-3.977-4.346-9.646-7.064-15.918-7.064
	c-12.042,0-21.807,10.013-21.807,22.364c0,1.75,0.192,3.456,0.565,5.095c-18.125-0.934-34.196-9.835-44.953-23.365
	c-1.877,3.302-2.952,7.143-2.952,11.244c0,7.758,3.85,14.604,9.702,18.613c-3.574-0.116-6.938-1.124-9.879-2.799
	c-0.003,0.093-0.003,0.188-0.003,0.284c0,10.833,7.519,19.87,17.495,21.928c-1.83,0.509-3.756,0.783-5.746,0.783
	c-1.406,0-2.772-0.14-4.104-0.403c2.776,8.885,10.829,15.353,20.371,15.531c-7.464,5.998-16.865,9.574-27.084,9.574
	c-1.758,0-3.495-0.105-5.202-0.313c9.653,6.348,21.116,10.048,33.431,10.048c40.115,0,62.049-34.076,62.049-63.629
	c0-0.97-0.02-1.937-0.061-2.896c4.26-3.146,7.958-7.087,10.88-11.572c-3.908,1.781-8.112,2.983-12.525,3.521
	C186.861,108.682,190.315,104.302,191.945,99.074z"/>
</svg>
